<?xml version="1.0" encoding="utf-8"?>
<svg version="1.1" xmlns:xlink="http://www.w3.org/1999/xlink" width="50px" height="45px" xmlns="http://www.w3.org/2000/svg">
  <g transform="matrix(1 0 0 1 -673 -482 )">
    <path d="M 7.142857142857142 6.300000000000001  C 11.793154761904763 6.300000000000001  15.60639880952381 8.409375  18.582589285714285 12.628125  C 17.466517857142858 14.353124999999995  16.19233630952381 16.912499999999994  14.760044642857142 20.306250000000002  C 14.350818452380953 19.4625  14.00669642857143 18.7828125  13.727678571428573 18.2671875  C 13.448660714285715 17.7515625  13.071986607142858 17.15625  12.59765625 16.48125  C 12.123325892857144 15.806249999999999  11.648995535714288 15.276562499999995  11.174665178571429 14.8921875  C 10.700334821428571 14.5078125  10.114397321428571 14.179687499999993  9.416852678571429 13.9078125  C 8.719308035714286 13.635937499999999  7.961309523809525 13.500000000000002  7.142857142857142 13.500000000000002  L 0.8928571428571428 13.500000000000002  C 0.6324404761904762 13.500000000000002  0.4185267857142858 13.415624999999999  0.25111607142857145 13.246875000000003  C 0.08370535714285714 13.078125000000002  0 12.862499999999997  0 12.600000000000001  L 0 7.200000000000001  C 0 6.937499999999996  0.08370535714285714 6.721875000000002  0.25111607142857145 6.5531250000000005  C 0.4185267857142858 6.384374999999999  0.6324404761904762 6.300000000000001  0.8928571428571428 6.300000000000001  L 7.142857142857142 6.300000000000001  Z M 49.74888392857143 34.453125  C 49.916294642857146 34.621875  50 34.8375  50 35.1  C 50 35.3625  49.916294642857146 35.578125  49.74888392857143 35.746875  L 40.8203125 44.746875  C 40.652901785714285 44.915625  40.4389880952381 45  40.17857142857143 45  C 39.936755952380956 45  39.72749255952381 44.910937499999996  39.55078125 44.7328125  C 39.37406994047619 44.5546875  39.285714285714285 44.34375  39.285714285714285 44.1  L 39.285714285714285 38.7  C 38.69047619047619 38.7  37.8999255952381 38.7046875  36.9140625 38.714062500000004  C 35.928199404761905 38.723437499999996  35.17485119047619 38.7328125  34.654017857142854 38.7421875  C 34.133184523809526 38.7515625  33.45424107142857 38.7421875  32.6171875 38.714062500000004  C 31.78013392857143 38.685937499999994  31.119791666666668 38.6390625  30.636160714285715 38.5734375  C 30.152529761904763 38.5078125  29.557291666666668 38.409375000000004  28.85044642857143 38.278124999999996  C 28.143601190476193 38.146874999999994  27.557663690476193 37.9734375  27.09263392857143 37.7578125  C 26.627604166666668 37.5421875  26.088169642857146 37.275  25.474330357142854 36.956250000000004  C 24.860491071428573 36.637499999999996  24.311755952380953 36.262499999999996  23.828125 35.83125  C 23.34449404761905 35.400000000000006  22.832961309523814 34.8984375  22.293526785714285 34.3265625  C 21.754092261904763 33.754687499999996  21.233258928571427 33.103125  20.731026785714285 32.371875  C 21.828497023809526 30.628125  23.093377976190478 28.06875  24.525669642857142 24.69375  C 24.934895833333336 25.5375  25.279017857142854 26.217187499999998  25.558035714285715 26.732812499999998  C 25.83705357142857 27.248437499999998  26.21372767857143 27.84375  26.688058035714285 28.51875  C 27.162388392857146 29.193749999999998  27.63671875 29.723437499999996  28.111049107142854 30.1078125  C 28.585379464285715 30.492187499999996  29.171316964285715 30.820312499999996  29.868861607142854 31.092187499999998  C 30.56640625 31.364062500000003  31.324404761904763 31.499999999999996  32.142857142857146 31.499999999999996  L 39.285714285714285 31.499999999999996  L 39.285714285714285 26.1  C 39.285714285714285 25.837500000000002  39.369419642857146 25.621875  39.536830357142854 25.453125000000004  C 39.70424107142857 25.284375  39.91815476190476 25.200000000000003  40.17857142857143 25.200000000000003  C 40.401785714285715 25.200000000000003  40.625 25.293749999999996  40.848214285714285 25.481249999999996  L 49.74888392857143 34.453125  Z M 49.74888392857143 9.253124999999997  C 49.916294642857146 9.421874999999998  50 9.637499999999998  50 9.899999999999999  C 50 10.1625  49.916294642857146 10.378124999999999  49.74888392857143 10.546875  L 40.8203125 19.546874999999996  C 40.652901785714285 19.715625  40.4389880952381 19.799999999999997  40.17857142857143 19.799999999999997  C 39.936755952380956 19.799999999999997  39.72749255952381 19.7109375  39.55078125 19.532812500000002  C 39.37406994047619 19.354687499999997  39.285714285714285 19.143749999999994  39.285714285714285 18.900000000000002  L 39.285714285714285 13.500000000000002  L 32.142857142857146 13.500000000000002  C 31.25 13.500000000000002  30.440848214285715 13.640624999999998  29.715401785714285 13.921874999999998  C 28.989955357142854 14.203125000000002  28.348214285714292 14.624999999999998  27.79017857142857 15.187500000000002  C 27.23214285714286 15.749999999999998  26.757812500000007 16.326562499999998  26.3671875 16.9171875  C 25.976562500000007 17.5078125  25.558035714285715 18.234374999999996  25.111607142857146 19.096874999999997  C 24.51636904761905 20.259375  23.79092261904762 21.8625  22.935267857142858 23.90625  C 22.395833333333336 25.143750000000004  21.93545386904762 26.184374999999996  21.554129464285715 27.028125  C 21.17280505952381 27.871875  20.670572916666668 28.85625  20.047433035714285 29.98125  C 19.424293154761905 31.106249999999996  18.82905505952381 32.043749999999996  18.26171875 32.79375  C 17.694382440476193 33.543749999999996  17.006138392857142 34.321875  16.196986607142858 35.128125  C 15.387834821428573 35.934375  14.55078125 36.576562499999994  13.685825892857142 37.0546875  C 12.820870535714288 37.5328125  11.830357142857144 37.926562499999996  10.714285714285714 38.2359375  C 9.598214285714286 38.5453125  8.407738095238097 38.7  7.142857142857142 38.7  L 0.8928571428571428 38.7  C 0.6324404761904762 38.7  0.4185267857142858 38.615625  0.25111607142857145 38.446875  C 0.08370535714285714 38.278124999999996  0 38.0625  0 37.8  L 0 32.4  C 0 32.137499999999996  0.08370535714285714 31.921875  0.25111607142857145 31.753124999999997  C 0.4185267857142858 31.584375  0.6324404761904762 31.499999999999996  0.8928571428571428 31.499999999999996  L 7.142857142857142 31.499999999999996  C 8.035714285714286 31.499999999999996  8.844866071428571 31.359375  9.5703125 31.078125000000004  C 10.295758928571429 30.796874999999996  10.9375 30.375000000000004  11.495535714285714 29.8125  C 12.053571428571429 29.25  12.527901785714285 28.673437500000002  12.918526785714285 28.0828125  C 13.309151785714285 27.4921875  13.727678571428573 26.765624999999996  14.174107142857142 25.903125000000003  C 14.769345238095239 24.740625  15.494791666666668 23.1375  16.350446428571427 21.09375  C 16.889880952380953 19.856250000000003  17.350260416666668 18.815624999999997  17.731584821428573 17.971875  C 18.112909226190478 17.128125  18.61514136904762 16.14375  19.23828125 15.018749999999999  C 19.86142113095238 13.893749999999999  20.456659226190478 12.956249999999997  21.023995535714285 12.206249999999999  C 21.591331845238095 11.456249999999997  22.279575892857142 10.678124999999996  23.088727678571427 9.871875  C 23.897879464285715 9.065624999999999  24.734933035714285 8.423437499999999  25.599888392857146 7.945312499999998  C 26.46484375 7.467187499999998  27.455357142857146 7.073437500000002  28.57142857142857 6.764062499999998  C 29.6875 6.4546874999999995  30.877976190476193 6.300000000000001  32.142857142857146 6.300000000000001  L 39.285714285714285 6.300000000000001  L 39.285714285714285 0.9000000000000008  C 39.285714285714285 0.6374999999999947  39.369419642857146 0.421875000000001  39.536830357142854 0.2531249999999996  C 39.70424107142857 0.0843749999999982  39.91815476190476 0  40.17857142857143 0  C 40.401785714285715 0  40.625 0.09374999999999967  40.848214285714285 0.281249999999999  L 49.74888392857143 9.253124999999997  Z " fill-rule="nonzero" fill="#000000" stroke="none" transform="matrix(1 0 0 1 673 482 )" />
  </g>
</svg>