<?xml version="1.0" encoding="utf-8"?>
<svg version="1.1" xmlns:xlink="http://www.w3.org/1999/xlink" width="20px" height="30px" xmlns="http://www.w3.org/2000/svg">
  <g transform="matrix(1 0 0 1 -60 -56 )">
    <path d="M 19.668938656280428 8.656716417910449  C 20.019474196689387 9.111584932480454  20.077896786757545 9.594882729211086  19.844206426484906 10.106609808102347  C 19.61051606621227 10.632551528073916  19.234014930217462 10.895522388059701  18.714703018500487 10.895522388059701  L 15 10.895522388059701  L 15 29.317697228144986  C 14.975657254138266 29.516702203269364  14.917234664070108 29.680170575692962  14.800389483933786 29.808102345415776  C 14.683544303797468 29.93603411513859  14.534242129178839 30  14.352482960077896 30  L 0.6426484907497566 30  C 0.37000973709834467 30  0.18175916910094125 29.872068230277186  0.07789678675754626 29.616204690831555  C -0.025965595585848763 29.3319118692253  0 29.08315565031983  0.15579357351509251 28.86993603411514  L 3.2716650438169426 24.776119402985074  C 3.3885102239532623 24.619758351101634  3.5507951963648168 24.541577825159916  3.758519961051607 24.541577825159916  L 10 24.541577825159916  L 10 10.895522388059701  L 6.251217137293087 10.895522388059701  C 5.731905225576113 10.895522388059701  5.355404089581305 10.632551528073916  5.121713729308666 10.106609808102347  C 4.901006166828951 9.580668088130771  4.959428756897112 9.09737029140014  5.296981499513144 8.656716417910449  L 11.528724440116845 0.46908315565032055  C 11.762414800389484 0.15636105188343685  12.080493346316132 0  12.482960077896788 0  C 12.885426809477444 0  13.20350535540409 0.15636105188343685  13.43719571567673 0.46908315565032055  L 19.668938656280428 8.656716417910449  Z " fill-rule="nonzero" fill="#0000aa" stroke="none" transform="matrix(1 0 0 1 60 56 )" />
  </g>
</svg>