<?xml version="1.0" encoding="utf-8"?>
<svg version="1.1" xmlns:xlink="http://www.w3.org/1999/xlink" width="17px" height="20px" xmlns="http://www.w3.org/2000/svg">
  <g transform="matrix(1 0 0 1 -451 -553 )">
    <path d="M 6.073153409090909 7.6171875  C 6.145596590909091 7.6953125  6.181818181818182 7.795138888888888  6.181818181818182 7.916666666666668  L 6.181818181818182 15.416666666666668  C 6.181818181818182 15.538194444444445  6.145596590909091 15.638020833333332  6.073153409090909 15.716145833333332  C 6.000710227272727 15.794270833333332  5.90814393939394 15.833333333333332  5.795454545454545 15.833333333333332  L 5.022727272727273 15.833333333333332  C 4.91003787878788 15.833333333333332  4.817471590909092 15.794270833333332  4.745028409090909 15.716145833333332  C 4.672585227272727 15.638020833333332  4.636363636363636 15.538194444444445  4.636363636363636 15.416666666666668  L 4.636363636363636 7.916666666666668  C 4.636363636363636 7.795138888888888  4.672585227272727 7.6953125  4.745028409090909 7.6171875  C 4.817471590909092 7.5390625  4.91003787878788 7.5  5.022727272727273 7.5  L 5.795454545454545 7.5  C 5.90814393939394 7.5  6.000710227272727 7.5390625  6.073153409090909 7.6171875  Z M 9.1640625 7.6171875  C 9.236505681818182 7.6953125  9.272727272727272 7.795138888888888  9.272727272727272 7.916666666666668  L 9.272727272727272 15.416666666666668  C 9.272727272727272 15.538194444444445  9.236505681818182 15.638020833333332  9.1640625 15.716145833333332  C 9.091619318181818 15.794270833333332  8.999053030303031 15.833333333333332  8.886363636363637 15.833333333333332  L 8.113636363636363 15.833333333333332  C 8.00094696969697 15.833333333333332  7.908380681818182 15.794270833333332  7.8359375 15.716145833333332  C 7.763494318181818 15.638020833333332  7.727272727272727 15.538194444444445  7.727272727272727 15.416666666666668  L 7.727272727272727 7.916666666666668  C 7.727272727272727 7.795138888888888  7.763494318181818 7.6953125  7.8359375 7.6171875  C 7.908380681818182 7.5390625  8.00094696969697 7.5  8.113636363636363 7.5  L 8.886363636363637 7.5  C 8.999053030303031 7.5  9.091619318181818 7.5390625  9.1640625 7.6171875  Z M 12.25497159090909 7.6171875  C 12.327414772727272 7.6953125  12.363636363636363 7.795138888888888  12.363636363636363 7.916666666666668  L 12.363636363636363 15.416666666666668  C 12.363636363636363 15.538194444444445  12.327414772727272 15.638020833333332  12.25497159090909 15.716145833333332  C 12.18252840909091 15.794270833333332  12.089962121212121 15.833333333333332  11.977272727272728 15.833333333333332  L 11.204545454545453 15.833333333333332  C 11.09185606060606 15.833333333333332  10.999289772727272 15.794270833333332  10.92684659090909 15.716145833333332  C 10.85440340909091 15.638020833333332  10.818181818181818 15.538194444444445  10.818181818181818 15.416666666666668  L 10.818181818181818 7.916666666666668  C 10.818181818181818 7.795138888888888  10.85440340909091 7.6953125  10.92684659090909 7.6171875  C 10.999289772727272 7.5390625  11.09185606060606 7.5  11.204545454545453 7.5  L 11.977272727272728 7.5  C 12.089962121212121 7.5  12.18252840909091 7.5390625  12.25497159090909 7.6171875  Z M 13.824573863636363 17.87109375  C 13.88091856060606 17.71050347222222  13.90909090909091 17.53472222222222  14 17.34375  L 14 5  L 3 5  L 3 17.34375  C 3.090909090909091 17.53472222222222  3.11908143939394 17.71050347222222  3.1754261363636367 17.87109375  C 3.2317708333333335 18.03168402777778  3.290127840909091 18.14887152777778  3.350497159090909 18.22265625  C 3.4108664772727275 18.29644097222222  3.453125 18.333333333333332  3.4772727272727275 18  L 13.522727272727272 18  C 13.546875 18.333333333333332  13.589133522727272 18.29644097222222  13.64950284090909 18.22265625  C 13.70987215909091 18.14887152777778  13.76822916666667 18.03168402777778  13.824573863636363 17.87109375  Z M 6.387073863636364 1.8098958333333326  L 5.795454545454545 3.3333333333333326  L 11.204545454545453 3.3333333333333326  L 10.625 1.8098958333333326  C 10.568655303030305 1.7317708333333326  10.500236742424242 1.6840277777777768  10.419744318181818 1.6666666666666674  L 6.592329545454545 1.6666666666666674  C 6.511837121212121 1.6840277777777768  6.443418560606061 1.7317708333333326  6.387073863636364 1.8098958333333326  Z M 16.891335227272727 3.4505208333333326  C 16.96377840909091 3.5286458333333326  17 3.628472222222221  17 3.75  L 17 4.583333333333332  C 17 4.704861111111109  16.96377840909091 4.8046875  16.891335227272727 4.8828125  C 16.818892045454547 4.9609375  16.726325757575758 5  16.613636363636363 5  L 15.454545454545453 5  L 15.454545454545453 17.34375  C 15.454545454545453 18.06423611111111  15.26538825757576 18.68706597222222  14.887073863636363 19.212239583333332  C 14.50875946969697 19.737413194444443  14.053977272727272 20  13.522727272727272 20  L 3.4772727272727275 20  C 2.9460227272727275 20  2.4912405303030307 19.74609375  2.1129261363636362 19.23828125  C 1.7346117424242427 18.73046875  1.5454545454545454 18.116319444444443  1.5454545454545454 17.395833333333332  L 1.5454545454545454 5  L 0.38636363636363635 5  C 0.27367424242424243 5  0.18110795454545456 4.9609375  0.10866477272727273 4.8828125  C 0.036221590909090905 4.8046875  0 4.704861111111109  0 4.583333333333332  L 0 3.75  C 0 3.628472222222221  0.036221590909090905 3.5286458333333326  0.10866477272727273 3.4505208333333326  C 0.18110795454545456 3.3723958333333326  0.27367424242424243 3.3333333333333326  0.38636363636363635 3.3333333333333326  L 4.1171875 3.3333333333333326  L 4.962357954545455 1.1588541666666674  C 5.083096590909092 0.8376736111111094  5.300426136363637 0.5642361111111094  5.614346590909091 0.3385416666666674  C 5.928267045454546 0.11284722222222099  6.246212121212121 0  6.568181818181818 0  L 10.431818181818182 0  C 10.75378787878788 0  11.071732954545453 0.11284722222222099  11.38565340909091 0.3385416666666674  C 11.699573863636363 0.5642361111111094  11.91690340909091 0.8376736111111094  12.037642045454547 1.1588541666666674  L 12.8828125 3.3333333333333326  L 16.613636363636363 3.3333333333333326  C 16.726325757575758 3.3333333333333326  16.818892045454547 3.3723958333333326  16.891335227272727 3.4505208333333326  Z " fill-rule="nonzero" fill="#0000aa" stroke="none" transform="matrix(1 0 0 1 451 553 )" />
  </g>
</svg>