<?xml version="1.0" encoding="utf-8"?>
<svg version="1.1" xmlns:xlink="http://www.w3.org/1999/xlink" width="29px" height="29px" xmlns="http://www.w3.org/2000/svg">
  <g transform="matrix(1 0 0 1 -634 -1185 )">
    <path d="M 21.334635416666668 16.9638671875  C 21.485677083333332 17.259657118055554  21.510850694444446 17.564887152777775  21.41015625 17.879557291666664  C 20.944444444444446 19.40256076388889  20.075954861111114 20.629774305555554  18.8046875 21.561197916666664  C 17.533420138888893 22.492621527777775  16.098524305555557 22.958333333333332  14.5 22.958333333333332  C 12.901475694444446 22.958333333333332  11.466579861111112 22.492621527777775  10.1953125 21.561197916666664  C 8.92404513888889 20.629774305555554  8.055555555555555 19.40256076388889  7.58984375 17.879557291666664  C 7.489149305555556 17.564887152777775  7.514322916666666 17.259657118055554  7.665364583333334 16.9638671875  C 7.81640625 16.66807725694444  8.055555555555555 16.46983506944444  8.3828125 16.369140625  C 8.69748263888889 16.268446180555554  9.002712673611112 16.293619791666664  9.298502604166666 16.444661458333336  C 9.594292534722223 16.595703125  9.792534722222223 16.834852430555554  9.893229166666666 17.162109375  C 10.207899305555557 18.16905381944444  10.7900390625 18.984049479166664  11.6396484375 19.607096354166664  C 12.4892578125 20.230143229166664  13.442708333333334 20.541666666666664  14.5 20.541666666666664  C 15.557291666666668 20.541666666666664  16.510742187500004 20.230143229166664  17.3603515625 19.607096354166664  C 18.209960937500004 18.984049479166664  18.792100694444446 18.16905381944444  19.106770833333332 17.162109375  C 19.20746527777778 16.834852430555554  19.408854166666668 16.595703125  19.7109375 16.444661458333336  C 20.013020833333332 16.293619791666664  20.321397569444446 16.268446180555554  20.636067708333332 16.369140625  C 20.950737847222225 16.46983506944444  21.18359375 16.66807725694444  21.334635416666668 16.9638671875  Z M 11.375325520833334 7.9580078125  C 11.847330729166666 8.430013020833332  12.083333333333334 8.99956597222222  12.083333333333334 9.666666666666668  C 12.083333333333334 10.333767361111109  11.847330729166666 10.903320312499996  11.375325520833334 11.375325520833332  C 10.9033203125 11.847330729166668  10.333767361111112 12.083333333333332  9.666666666666666 12.083333333333332  C 8.999565972222223 12.083333333333332  8.430013020833334 11.847330729166668  7.9580078125 11.375325520833332  C 7.486002604166666 10.903320312499996  7.25 10.333767361111109  7.25 9.666666666666668  C 7.25 8.99956597222222  7.486002604166666 8.430013020833332  7.9580078125 7.9580078125  C 8.430013020833334 7.486002604166668  8.999565972222223 7.25  9.666666666666666 7.25  C 10.333767361111112 7.25  10.9033203125 7.486002604166668  11.375325520833334 7.9580078125  Z M 21.0419921875 7.9580078125  C 21.513997395833332 8.430013020833332  21.75 8.99956597222222  21.75 9.666666666666668  C 21.75 10.333767361111109  21.513997395833332 10.903320312499996  21.0419921875 11.375325520833332  C 20.569986979166668 11.847330729166668  20.00043402777778 12.083333333333332  19.333333333333332 12.083333333333332  C 18.666232638888893 12.083333333333332  18.0966796875 11.847330729166668  17.624674479166668 11.375325520833332  C 17.152669270833332 10.903320312499996  16.916666666666668 10.333767361111109  16.916666666666668 9.666666666666668  C 16.916666666666668 8.99956597222222  17.152669270833332 8.430013020833332  17.624674479166668 7.9580078125  C 18.0966796875 7.486002604166668  18.666232638888893 7.25  19.333333333333332 7.25  C 20.00043402777778 7.25  20.569986979166668 7.486002604166668  21.0419921875 7.9580078125  Z M 25.620442708333332 19.191731770833336  C 26.262369791666668 17.7001953125  26.583333333333332 16.136284722222225  26.583333333333332 14.5  C 26.583333333333332 12.863715277777777  26.262369791666668 11.2998046875  25.620442708333332 9.808268229166668  C 24.978515625 8.316731770833332  24.119466145833332 7.032877604166668  23.043294270833332 5.956705729166668  C 21.967122395833332 4.880533854166668  20.683268229166668 4.021484375  19.191731770833332 3.379557291666668  C 17.7001953125 2.737630208333332  16.136284722222225 2.416666666666668  14.5 2.416666666666668  C 12.863715277777779 2.416666666666668  11.2998046875 2.737630208333332  9.808268229166666 3.379557291666668  C 8.316731770833334 4.021484375  7.032877604166667 4.880533854166668  5.956705729166667 5.956705729166668  C 4.880533854166667 7.032877604166668  4.021484375 8.316731770833332  3.3795572916666665 9.808268229166668  C 2.7376302083333335 11.2998046875  2.4166666666666665 12.863715277777777  2.4166666666666665 14.5  C 2.4166666666666665 16.136284722222225  2.7376302083333335 17.7001953125  3.3795572916666665 19.191731770833336  C 4.021484375 20.683268229166664  4.880533854166667 21.967122395833332  5.956705729166667 23.043294270833332  C 7.032877604166667 24.119466145833332  8.316731770833334 24.978515625  9.808268229166666 25.620442708333332  C 11.2998046875 26.262369791666668  12.863715277777779 26.583333333333332  14.5 26.583333333333332  C 16.136284722222225 26.583333333333332  17.7001953125 26.262369791666668  19.191731770833332 25.620442708333332  C 20.683268229166668 24.978515625  21.967122395833332 24.119466145833332  23.043294270833332 23.043294270833332  C 24.119466145833332 21.967122395833332  24.978515625 20.683268229166664  25.620442708333332 19.191731770833336  Z M 27.055338541666668 7.2216796875  C 28.351779513888886 9.443250868055554  29 11.869357638888886  29 14.5  C 29 17.13064236111111  28.351779513888886 19.55674913194444  27.055338541666668 21.7783203125  C 25.758897569444446 23.999891493055557  23.999891493055557 25.758897569444443  21.7783203125 27.055338541666668  C 19.556749131944446 28.351779513888893  17.13064236111111 29  14.5 29  C 11.86935763888889 29  9.443250868055555 28.351779513888893  7.2216796875 27.055338541666668  C 5.000108506944445 25.758897569444443  3.241102430555556 23.999891493055557  1.9446614583333335 21.7783203125  C 0.648220486111111 19.55674913194444  0 17.13064236111111  0 14.5  C 0 11.869357638888886  0.648220486111111 9.443250868055554  1.9446614583333335 7.2216796875  C 3.241102430555556 5.000108506944444  5.000108506944445 3.2411024305555527  7.2216796875 1.9446614583333321  C 9.443250868055555 0.6482204861111086  11.86935763888889 0  14.5 0  C 17.13064236111111 0  19.556749131944446 0.6482204861111086  21.7783203125 1.9446614583333321  C 23.999891493055557 3.2411024305555527  25.758897569444446 5.000108506944444  27.055338541666668 7.2216796875  Z " fill-rule="nonzero" fill="#63a103" stroke="none" transform="matrix(1 0 0 1 634 1185 )" />
  </g>
</svg>