<?xml version="1.0" encoding="utf-8"?>
<svg version="1.1" xmlns:xlink="http://www.w3.org/1999/xlink" width="35px" height="35px" xmlns="http://www.w3.org/2000/svg">
  <g transform="matrix(1 0 0 1 -504 -312 )">
    <path d="M 8.928786057692308 26.40190972222222  C 9.454627403846155 26.908275462962962  9.717548076923077 27.519290123456788  9.717548076923077 28.234953703703706  C 9.717548076923077 28.950617283950614  9.454627403846155 29.561631944444446  8.928786057692308 30.067997685185183  C 8.402944711538462 30.574363425925924  7.768429487179488 30.827546296296294  7.025240384615385 30.827546296296294  C 6.296073717948719 30.827546296296294  5.665064102564104 30.570987654320987  5.132211538461538 30.05787037037037  C 4.5993589743589745 29.544753086419757  4.3329326923076925 28.937114197530864  4.3329326923076925 28.234953703703706  C 4.3329326923076925 27.519290123456788  4.595853365384615 26.908275462962962  5.121694711538462 26.40190972222222  C 5.6475360576923075 25.89554398148148  6.282051282051282 25.64236111111111  7.025240384615385 25.64236111111111  C 7.768429487179488 25.64236111111111  8.402944711538462 25.89554398148148  8.928786057692308 26.40190972222222  Z M 19.403545673076923 30.574363425925924  C 19.92938701923077 31.080729166666668  20.19230769230769 31.691743827160497  20.19230769230769 32.407407407407405  C 20.19230769230769 33.123070987654316  19.92938701923077 33.734085648148145  19.403545673076923 34.24045138888889  C 18.877704326923077 34.74681712962963  18.243189102564102 35  17.5 35  C 16.756810897435898 35  16.122295673076923 34.74681712962963  15.596454326923077 34.24045138888889  C 15.07061298076923 33.734085648148145  14.807692307692308 33.123070987654316  14.807692307692308 32.407407407407405  C 14.807692307692308 31.691743827160497  15.07061298076923 31.080729166666668  15.596454326923077 30.574363425925924  C 16.122295673076923 30.067997685185183  16.756810897435898 29.814814814814817  17.5 29.814814814814817  C 18.243189102564102 29.814814814814817  18.877704326923077 30.067997685185183  19.403545673076923 30.574363425925924  Z M 4.595853365384615 16.315104166666668  C 5.121694711538462 16.82146990740741  5.384615384615385 17.432484567901234  5.384615384615385 18.148148148148152  C 5.384615384615385 18.86381172839506  5.121694711538462 19.47482638888889  4.595853365384615 19.98119212962963  C 4.070012019230769 20.48755787037037  3.435496794871795 20.74074074074074  2.6923076923076925 20.74074074074074  C 1.94911858974359 20.74074074074074  1.3146033653846154 20.48755787037037  0.7887620192307693 19.98119212962963  C 0.2629206730769231 19.47482638888889  0 18.86381172839506  0 18.148148148148152  C 0 17.432484567901234  0.2629206730769231 16.82146990740741  0.7887620192307693 16.315104166666668  C 1.3146033653846154 15.808738425925924  1.94911858974359 15.555555555555555  2.6923076923076925 15.555555555555555  C 3.435496794871795 15.555555555555555  4.070012019230769 15.808738425925924  4.595853365384615 16.315104166666668  Z M 29.87830528846154 26.40190972222222  C 30.404146634615383 26.908275462962962  30.66706730769231 27.519290123456788  30.66706730769231 28.234953703703706  C 30.66706730769231 28.937114197530864  30.40064102564103 29.544753086419757  29.86778846153846 30.05787037037037  C 29.334935897435898 30.570987654320987  28.703926282051285 30.827546296296294  27.974759615384617 30.827546296296294  C 27.231570512820515 30.827546296296294  26.59705528846154 30.574363425925924  26.07121394230769 30.067997685185183  C 25.545372596153847 29.561631944444446  25.282451923076923 28.950617283950614  25.282451923076923 28.234953703703706  C 25.282451923076923 27.519290123456788  25.545372596153847 26.908275462962962  26.07121394230769 26.40190972222222  C 26.59705528846154 25.89554398148148  27.231570512820515 25.64236111111111  27.974759615384617 25.64236111111111  C 28.717948717948723 25.64236111111111  29.35246394230769 25.89554398148148  29.87830528846154 26.40190972222222  Z M 9.40204326923077 5.7725694444444455  C 10.061097756410257 6.407214506172837  10.390625 7.170138888888891  10.390625 8.061342592592592  C 10.390625 8.952546296296298  10.061097756410257 9.715470679012341  9.40204326923077 10.35011574074074  C 8.742988782051283 10.984760802469134  7.950721153846154 11.302083333333332  7.025240384615385 11.302083333333332  C 6.099759615384615 11.302083333333332  5.307491987179488 10.984760802469134  4.6484375 10.35011574074074  C 3.989383012820513 9.715470679012341  3.659855769230769 8.952546296296298  3.659855769230769 8.061342592592592  C 3.659855769230769 7.170138888888891  3.989383012820513 6.407214506172837  4.6484375 5.7725694444444455  C 5.307491987179488 5.137924382716046  6.099759615384615 4.820601851851853  7.025240384615385 4.820601851851853  C 7.950721153846154 4.820601851851853  8.742988782051283 5.137924382716046  9.40204326923077 5.7725694444444455  Z M 34.21123798076923 16.315104166666668  C 34.73707932692308 16.82146990740741  35.00000000000001 17.432484567901234  35 18.148148148148152  C 35.00000000000001 18.86381172839506  34.73707932692308 19.47482638888889  34.21123798076923 19.98119212962963  C 33.68539663461539 20.48755787037037  33.050881410256416 20.74074074074074  32.30769230769231 20.74074074074074  C 31.564503205128208 20.74074074074074  30.92998798076923 20.48755787037037  30.404146634615383 19.98119212962963  C 29.87830528846154 19.47482638888889  29.615384615384617 18.86381172839506  29.615384615384617 18.148148148148152  C 29.615384615384617 17.432484567901234  29.87830528846154 16.82146990740741  30.404146634615383 16.315104166666668  C 30.92998798076923 15.808738425925924  31.564503205128208 15.555555555555555  32.30769230769231 15.555555555555555  C 33.050881410256416 15.555555555555555  33.68539663461539 15.808738425925924  34.21123798076923 16.315104166666668  Z M 20.360576923076923 1.1342592592592604  C 21.145833333333336 1.8904320987654288  21.53846153846154 2.808641975308639  21.53846153846154 3.8888888888888906  C 21.53846153846154 4.969135802469134  21.145833333333336 5.88734567901234  20.360576923076923 6.643518518518517  C 19.575320512820515 7.39969135802469  18.621794871794872 7.777777777777778  17.5 7.777777777777778  C 16.37820512820513 7.777777777777778  15.42467948717949 7.39969135802469  14.639423076923077 6.643518518518517  C 13.854166666666668 5.88734567901234  13.461538461538462 4.969135802469134  13.461538461538462 3.8888888888888906  C 13.461538461538462 2.808641975308639  13.854166666666668 1.8904320987654288  14.639423076923077 1.1342592592592604  C 15.42467948717949 0.3780864197530881  16.37820512820513 0  17.5 0  C 18.621794871794872 0  19.575320512820515 0.3780864197530881  20.360576923076923 1.1342592592592604  Z M 31.298076923076923 4.861111111111109  C 32.22355769230769 5.752314814814815  32.68629807692307 6.819058641975307  32.68629807692307 8.061342592592592  C 32.68629807692307 9.31712962962963  32.22355769230769 10.38724922839506  31.298076923076923 11.271701388888891  C 30.372596153846153 12.156153549382715  29.264823717948723 12.59837962962963  27.974759615384617 12.59837962962963  C 26.670673076923077 12.59837962962963  25.559395032051285 12.156153549382715  24.64092548076923 11.271701388888891  C 23.722455929487182 10.38724922839506  23.263221153846153 9.31712962962963  23.263221153846153 8.061342592592592  C 23.263221153846153 6.819058641975307  23.722455929487182 5.752314814814815  24.64092548076923 4.861111111111109  C 25.559395032051285 3.9699074074074074  26.670673076923077 3.5243055555555545  27.974759615384617 3.5243055555555545  C 29.264823717948723 3.5243055555555545  30.372596153846153 3.9699074074074074  31.298076923076923 4.861111111111109  Z " fill-rule="nonzero" fill="#555555" stroke="none" transform="matrix(1 0 0 1 504 312 )" />
  </g>
</svg>