<?xml version="1.0" encoding="utf-8"?>
<svg version="1.1" xmlns:xlink="http://www.w3.org/1999/xlink" width="52px" height="44px" xmlns="http://www.w3.org/2000/svg">
  <g transform="matrix(1 0 0 1 -400 -70 )">
    <path d="M 44.212935323383086 40.21875  L 46.36019900497513 38.18080357142857  C 46.687893864013276 37.869791666666664  47.07595356550581 37.714285714285715  47.524378109452734 37.714285714285715  C 47.972802653399675 37.714285714285715  48.360862354892205 37.869791666666664  48.68855721393035 38.18080357142857  L 52 41.323660714285715  L 49.67164179104478 43.53348214285714  L 47.524378109452734 41.495535714285715  L 45.3771144278607 43.53348214285714  C 45.06666666666668 43.84449404761905  44.67860696517413 44  44.212935323383086 44  C 43.747263681592045 44  43.35920398009951 43.84449404761905  43.04875621890547 43.53348214285714  L 40.90149253731343 41.495535714285715  L 38.754228855721394 43.53348214285714  C 38.426533996683254 43.84449404761905  38.03847429519072 44  37.59004975124378 44  C 37.141625207296855 44  36.75356550580432 43.84449404761905  36.42587064676617 43.53348214285714  L 34.278606965174134 41.495535714285715  L 32.13134328358209 43.53348214285714  C 31.803648424543947 43.84449404761905  31.415588723051417 44  30.967164179104476 44  C 30.518739635157548 44  30.13067993366501 43.84449404761905  29.802985074626868 43.53348214285714  L 27.655721393034828 41.495535714285715  L 25.508457711442784 43.53348214285714  C 25.180762852404644 43.84449404761905  24.792703150912107 44  24.344278606965176 44  C 23.895854063018245 44  23.507794361525708 43.84449404761905  23.180099502487565 43.53348214285714  L 21.032835820895524 41.495535714285715  L 18.885572139303484 43.53348214285714  C 18.55787728026534 43.84449404761905  18.169817578772804 44  17.72139303482587 44  C 17.27296849087894 44  16.884908789386404 43.84449404761905  16.557213930348258 43.53348214285714  L 14.409950248756218 41.495535714285715  L 12.26268656716418 43.53348214285714  C 11.934991708126038 43.84449404761905  11.546932006633499 44  11.098507462686568 44  C 10.650082918739635 44  10.2620232172471 43.84449404761905  9.934328358208955 43.53348214285714  L 7.787064676616915 41.495535714285715  L 5.639800995024876 43.53348214285714  C 5.312106135986733 43.84449404761905  4.924046434494196 44  4.475621890547264 44  C 4.027197346600332 44  3.639137645107795 43.84449404761905  3.3114427860696516 43.53348214285714  L 0 40.390625  L 2.328358208955224 38.18080357142857  L 4.475621890547264 40.21875  L 6.622885572139303 38.18080357142857  C 6.950580431177446 37.869791666666664  7.338640132669983 37.714285714285715  7.787064676616915 37.714285714285715  C 8.23548922056385 37.714285714285715  8.623548922056386 37.869791666666664  8.951243781094528 38.18080357142857  L 11.098507462686568 40.21875  L 13.245771144278606 38.18080357142857  C 13.573466003316753 37.869791666666664  13.961525704809288 37.714285714285715  14.409950248756218 37.714285714285715  C 14.858374792703152 37.714285714285715  15.24643449419569 37.869791666666664  15.57412935323383 38.18080357142857  L 17.72139303482587 40.21875  L 19.86865671641791 38.18080357142857  C 20.196351575456053 37.869791666666664  20.584411276948593 37.714285714285715  21.032835820895524 37.714285714285715  C 21.48126036484246 37.714285714285715  21.869320066334996 37.869791666666664  22.197014925373136 38.18080357142857  L 24.344278606965176 40.21875  L 26.491542288557213 38.18080357142857  C 26.819237147595356 37.869791666666664  27.207296849087893 37.714285714285715  27.655721393034828 37.714285714285715  C 28.104145936981762 37.714285714285715  28.4922056384743 37.869791666666664  28.819900497512435 38.18080357142857  L 30.967164179104476 40.21875  L 33.114427860696516 38.18080357142857  C 33.44212271973466 37.869791666666664  33.8301824212272 37.714285714285715  34.278606965174134 37.714285714285715  C 34.72703150912106 37.714285714285715  35.115091210613606 37.869791666666664  35.44278606965174 38.18080357142857  L 37.59004975124378 40.21875  L 39.73731343283582 38.18080357142857  C 40.065008291873966 37.869791666666664  40.4530679933665 37.714285714285715  40.90149253731343 37.714285714285715  C 41.34991708126037 37.714285714285715  41.73797678275291 37.869791666666664  42.06567164179105 38.18080357142857  L 44.212935323383086 40.21875  Z M 7.787064676616915 35.20982142857143  L 5.639800995024876 37.24776785714286  C 5.312106135986733 37.55877976190476  4.924046434494196 37.714285714285715  4.475621890547264 37.714285714285715  C 4.027197346600332 37.714285714285715  3.639137645107795 37.55877976190476  3.3114427860696516 37.24776785714286  L 0 34.104910714285715  L 2.328358208955224 31.895089285714285  L 4.475621890547264 33.90848214285714  L 6.622885572139303 31.895089285714285  C 6.950580431177446 31.58407738095238  7.338640132669983 31.42857142857143  7.787064676616915 31.42857142857143  C 8.23548922056385 31.42857142857143  8.623548922056386 31.58407738095238  8.951243781094528 31.895089285714285  L 11.098507462686568 33.90848214285714  L 12.754228855721392 32.33705357142857  L 12.754228855721392 25.142857142857142  L 7.321393034825871 17.43303571428571  C 7.028192371475955 17.007440476190474  6.96782752902156 16.54501488095238  7.140298507462687 16.04575892857143  C 7.312769485903815 15.546502976190473  7.65771144278607 15.215029761904756  8.175124378109452 15.051339285714288  L 12.754228855721392 13.627232142857142  L 12.754228855721392 6.285714285714288  L 16.065671641791045 6.285714285714288  L 16.065671641791045 3.1428571428571415  L 22.68855721393035 3.1428571428571415  L 22.68855721393035 0  L 29.311442786069648 0  L 29.311442786069648 3.1428571428571415  L 35.93432835820895 3.1428571428571415  L 35.93432835820895 6.285714285714288  L 39.245771144278606 6.285714285714288  L 39.245771144278606 13.627232142857142  L 43.82487562189055 15.051339285714288  C 44.342288557213934 15.215029761904756  44.687230514096186 15.546502976190473  44.85970149253731 16.04575892857143  C 45.032172470978445 16.54501488095238  44.971807628524054 17.007440476190474  44.67860696517413 17.43303571428571  L 39.245771144278606 25.142857142857142  L 39.245771144278606 32.33705357142857  L 39.73731343283582 31.895089285714285  C 40.065008291873966 31.58407738095238  40.4530679933665 31.42857142857143  40.90149253731343 31.42857142857143  C 41.34991708126037 31.42857142857143  41.73797678275291 31.58407738095238  42.06567164179105 31.895089285714285  L 44.212935323383086 33.90848214285714  L 46.36019900497513 31.895089285714285  C 46.687893864013276 31.58407738095238  47.07595356550581 31.42857142857143  47.524378109452734 31.42857142857143  C 47.972802653399675 31.42857142857143  48.360862354892205 31.58407738095238  48.68855721393035 31.895089285714285  L 52 35.03794642857143  L 49.67164179104478 37.24776785714286  L 47.524378109452734 35.20982142857143  L 45.3771144278607 37.24776785714286  C 45.06666666666668 37.55877976190476  44.67860696517413 37.714285714285715  44.212935323383086 37.714285714285715  C 43.747263681592045 37.714285714285715  43.35920398009951 37.55877976190476  43.04875621890547 37.24776785714286  L 40.90149253731343 35.20982142857143  L 38.754228855721394 37.24776785714286  C 38.426533996683254 37.55877976190476  38.03847429519072 37.714285714285715  37.59004975124378 37.714285714285715  C 37.141625207296855 37.714285714285715  36.75356550580432 37.55877976190476  36.42587064676617 37.24776785714286  L 34.278606965174134 35.20982142857143  L 32.13134328358209 37.24776785714286  C 31.803648424543947 37.55877976190476  31.415588723051417 37.714285714285715  30.967164179104476 37.714285714285715  C 30.518739635157548 37.714285714285715  30.13067993366501 37.55877976190476  29.802985074626868 37.24776785714286  L 27.655721393034828 35.20982142857143  L 25.508457711442784 37.24776785714286  C 25.180762852404644 37.55877976190476  24.792703150912107 37.714285714285715  24.344278606965176 37.714285714285715  C 23.895854063018245 37.714285714285715  23.507794361525708 37.55877976190476  23.180099502487565 37.24776785714286  L 21.032835820895524 35.20982142857143  L 18.885572139303484 37.24776785714286  C 18.55787728026534 37.55877976190476  18.169817578772804 37.714285714285715  17.72139303482587 37.714285714285715  C 17.27296849087894 37.714285714285715  16.884908789386404 37.55877976190476  16.557213930348258 37.24776785714286  L 14.409950248756218 35.20982142857143  L 12.26268656716418 37.24776785714286  C 11.934991708126038 37.55877976190476  11.546932006633499 37.714285714285715  11.098507462686568 37.714285714285715  C 10.650082918739635 37.714285714285715  10.2620232172471 37.55877976190476  9.934328358208955 37.24776785714286  L 7.787064676616915 35.20982142857143  Z M 19.377114427860697 9.428571428571429  L 16.065671641791045 9.428571428571429  L 16.065671641791045 12.571428571428571  L 26 9.428571428571429  L 35.93432835820895 12.571428571428571  L 35.93432835820895 9.428571428571429  L 32.6228855721393 9.428571428571429  L 32.6228855721393 7  L 19.377114427860697 7  L 19.377114427860697 9.428571428571429  Z " fill-rule="nonzero" fill="#0000aa" stroke="none" transform="matrix(1 0 0 1 400 70 )" />
  </g>
</svg>