<?xml version="1.0" encoding="utf-8"?>
<svg version="1.1" xmlns:xlink="http://www.w3.org/1999/xlink" width="29px" height="29px" xmlns="http://www.w3.org/2000/svg">
  <g transform="matrix(1 0 0 1 -634 -929 )">
    <path d="M 21.391276041666668 17.275390625  C 21.630425347222225 17.514539930555554  21.75 17.797743055555554  21.75 18.125  C 21.75 18.45225694444444  21.630425347222225 18.73546006944444  21.391276041666668 18.974609375  C 21.152126736111114 19.21375868055556  20.868923611111114 19.333333333333336  20.541666666666668 19  L 8.458333333333334 19  C 8.13107638888889 19.333333333333336  7.84787326388889 19.21375868055556  7.608723958333334 18.974609375  C 7.369574652777778 18.73546006944444  7.25 18.45225694444444  7.25 18.125  C 7.25 17.797743055555554  7.369574652777778 17.514539930555554  7.608723958333334 17.275390625  C 7.84787326388889 17.03624131944444  8.13107638888889 16.916666666666664  8.458333333333334 17  L 20.541666666666668 17  C 20.868923611111114 16.916666666666664  21.152126736111114 17.03624131944444  21.391276041666668 17.275390625  Z M 11.375325520833334 7.9580078125  C 11.847330729166666 8.430013020833332  12.083333333333334 8.99956597222222  12.083333333333334 9.666666666666668  C 12.083333333333334 10.333767361111109  11.847330729166666 10.903320312499996  11.375325520833334 11.375325520833332  C 10.9033203125 11.847330729166668  10.333767361111112 12.083333333333332  9.666666666666666 12.083333333333332  C 8.999565972222223 12.083333333333332  8.430013020833334 11.847330729166668  7.9580078125 11.375325520833332  C 7.486002604166666 10.903320312499996  7.25 10.333767361111109  7.25 9.666666666666668  C 7.25 8.99956597222222  7.486002604166666 8.430013020833332  7.9580078125 7.9580078125  C 8.430013020833334 7.486002604166668  8.999565972222223 7.25  9.666666666666666 7.25  C 10.333767361111112 7.25  10.9033203125 7.486002604166668  11.375325520833334 7.9580078125  Z M 21.0419921875 7.9580078125  C 21.513997395833332 8.430013020833332  21.75 8.99956597222222  21.75 9.666666666666668  C 21.75 10.333767361111109  21.513997395833332 10.903320312499996  21.0419921875 11.375325520833332  C 20.569986979166668 11.847330729166668  20.00043402777778 12.083333333333332  19.333333333333332 12.083333333333332  C 18.666232638888893 12.083333333333332  18.0966796875 11.847330729166668  17.624674479166668 11.375325520833332  C 17.152669270833332 10.903320312499996  16.916666666666668 10.333767361111109  16.916666666666668 9.666666666666668  C 16.916666666666668 8.99956597222222  17.152669270833332 8.430013020833332  17.624674479166668 7.9580078125  C 18.0966796875 7.486002604166668  18.666232638888893 7.25  19.333333333333332 7.25  C 20.00043402777778 7.25  20.569986979166668 7.486002604166668  21.0419921875 7.9580078125  Z M 25.620442708333332 19.191731770833336  C 26.262369791666668 17.7001953125  26.583333333333332 16.136284722222225  26.583333333333332 14.5  C 26.583333333333332 12.863715277777777  26.262369791666668 11.2998046875  25.620442708333332 9.808268229166668  C 24.978515625 8.316731770833332  24.119466145833332 7.032877604166668  23.043294270833332 5.956705729166668  C 21.967122395833332 4.880533854166668  20.683268229166668 4.021484375  19.191731770833332 3.379557291666668  C 17.7001953125 2.737630208333332  16.136284722222225 2.416666666666668  14.5 2.416666666666668  C 12.863715277777779 2.416666666666668  11.2998046875 2.737630208333332  9.808268229166666 3.379557291666668  C 8.316731770833334 4.021484375  7.032877604166667 4.880533854166668  5.956705729166667 5.956705729166668  C 4.880533854166667 7.032877604166668  4.021484375 8.316731770833332  3.3795572916666665 9.808268229166668  C 2.7376302083333335 11.2998046875  2.4166666666666665 12.863715277777777  2.4166666666666665 14.5  C 2.4166666666666665 16.136284722222225  2.7376302083333335 17.7001953125  3.3795572916666665 19.191731770833336  C 4.021484375 20.683268229166664  4.880533854166667 21.967122395833332  5.956705729166667 23.043294270833332  C 7.032877604166667 24.119466145833332  8.316731770833334 24.978515625  9.808268229166666 25.620442708333332  C 11.2998046875 26.262369791666668  12.863715277777779 26.583333333333332  14.5 26.583333333333332  C 16.136284722222225 26.583333333333332  17.7001953125 26.262369791666668  19.191731770833332 25.620442708333332  C 20.683268229166668 24.978515625  21.967122395833332 24.119466145833332  23.043294270833332 23.043294270833332  C 24.119466145833332 21.967122395833332  24.978515625 20.683268229166664  25.620442708333332 19.191731770833336  Z M 27.055338541666668 7.2216796875  C 28.351779513888886 9.443250868055554  29 11.869357638888886  29 14.5  C 29 17.13064236111111  28.351779513888886 19.55674913194444  27.055338541666668 21.7783203125  C 25.758897569444446 23.999891493055557  23.999891493055557 25.758897569444443  21.7783203125 27.055338541666668  C 19.556749131944446 28.351779513888893  17.13064236111111 29  14.5 29  C 11.86935763888889 29  9.443250868055555 28.351779513888893  7.2216796875 27.055338541666668  C 5.000108506944445 25.758897569444443  3.241102430555556 23.999891493055557  1.9446614583333335 21.7783203125  C 0.648220486111111 19.55674913194444  0 17.13064236111111  0 14.5  C 0 11.869357638888886  0.648220486111111 9.443250868055554  1.9446614583333335 7.2216796875  C 3.241102430555556 5.000108506944444  5.000108506944445 3.2411024305555527  7.2216796875 1.9446614583333321  C 9.443250868055555 0.6482204861111086  11.86935763888889 0  14.5 0  C 17.13064236111111 0  19.556749131944446 0.6482204861111086  21.7783203125 1.9446614583333321  C 23.999891493055557 3.2411024305555527  25.758897569444446 5.000108506944444  27.055338541666668 7.2216796875  Z " fill-rule="nonzero" fill="#e3e673" stroke="none" transform="matrix(1 0 0 1 634 929 )" />
  </g>
</svg>